<svg width="186" height="186" viewBox="0 0 186 186" fill="none" xmlns="http://www.w3.org/2000/svg">
<circle cx="93" cy="93" r="93" fill="#E4B452"/>
<path d="M119.02 135.413L95.9319 123.017H130.595H146.029L160.5 124.5L176.5 134L169 146L119.02 135.413Z" fill="#202020"/>
<path d="M67.3966 81.0173H117.052L118.603 99.684H138V123.017H49.1419L48 99.684H65.8448L67.3966 81.0173Z" fill="#202020"/>
<path d="M53.8136 86.0809H64.1026L65.1315 120.035H52.7847L53.8136 86.0809Z" fill="#202020"/>
<rect x="52.2703" y="80.9364" width="13.3757" height="4.63006" fill="#202020"/>
<rect x="52.2703" y="79.9075" width="2.57225" height="1.0289" fill="#202020"/>
<rect x="55.8714" y="79.9075" width="2.57225" height="1.0289" fill="#202020"/>
<rect x="59.4726" y="79.9075" width="2.57225" height="1.0289" fill="#202020"/>
<rect x="63.0737" y="79.9075" width="2.57225" height="1.0289" fill="#202020"/>
<path d="M54.9712 95.341H55.7429V96.8844H54.9712V95.341Z" fill="#E4B452"/>
<path d="M61.1445 104.601H61.9162V106.145H61.1445V104.601Z" fill="#E4B452"/>
<path d="M135.225 90.711H145.514L146.543 124.665H134.197L135.225 90.711Z" fill="#202020"/>
<rect x="133.682" y="85.5665" width="13.3757" height="4.63006" fill="#202020"/>
<rect x="133.682" y="84.5376" width="2.57225" height="1.0289" fill="#202020"/>
<rect x="137.283" y="84.5376" width="2.57225" height="1.0289" fill="#202020"/>
<rect x="140.884" y="84.5376" width="2.57225" height="1.0289" fill="#202020"/>
<rect x="144.486" y="84.5376" width="2.57225" height="1.0289" fill="#202020"/>
<path d="M119.792 86.0809H130.081L131.11 120.035H118.763L119.792 86.0809Z" fill="#202020"/>
<path d="M121.335 98.4277H122.107V99.9711H121.335V98.4277Z" fill="#E4B452"/>
<path d="M127.509 89.1676H128.28V90.711H127.509V89.1676Z" fill="#E4B452"/>
<path d="M142.942 93.7977H143.714V95.341H142.942V93.7977Z" fill="#E4B452"/>
<path d="M136.769 98.4277H137.541V99.9711H136.769V98.4277Z" fill="#E4B452"/>
<rect x="118.249" y="80.9364" width="13.3757" height="4.63006" fill="#202020"/>
<rect x="118.249" y="79.9075" width="2.57225" height="1.0289" fill="#202020"/>
<rect x="121.85" y="79.9075" width="2.57225" height="1.0289" fill="#202020"/>
<rect x="125.451" y="79.9075" width="2.57225" height="1.0289" fill="#202020"/>
<rect x="129.052" y="79.9075" width="2.57225" height="1.0289" fill="#202020"/>
<path d="M37.9943 89.1676H48.2833L49.3122 123.121H36.9654L37.9943 89.1676Z" fill="#202020"/>
<path d="M39.5377 92.2544H40.3093V93.7977H39.5377V92.2544Z" fill="#E4B452"/>
<path d="M45.7111 98.4278H46.4827V99.9711H45.7111V98.4278Z" fill="#E4B452"/>
<rect x="36.4509" y="84.0231" width="13.3757" height="4.63006" fill="#202020"/>
<rect x="36.4509" y="82.9942" width="2.57225" height="1.0289" fill="#202020"/>
<rect x="40.0521" y="82.9942" width="2.57225" height="1.0289" fill="#202020"/>
<rect x="43.6533" y="82.9942" width="2.57225" height="1.0289" fill="#202020"/>
<rect x="47.2544" y="82.9942" width="2.57225" height="1.0289" fill="#202020"/>
<path d="M85.8382 64.474L98.185 64.474V70.6474H99.7283L98.9566 75.2774L98.185 76.8208L99.7283 98.4278H84.2948L85.8382 76.8208L85.0665 75.2774L84.2948 70.6474H85.8382V64.474Z" fill="#202020"/>
<path d="M85.0665 62.9306L84.2948 62.159V56.7572H85.0665V55.2139L92.0116 27.4335L98.9566 55.2139V56.7572H99.7283V62.159L98.9566 62.9306L98.185 63.9596H92.0116H85.8382L85.0665 62.9306Z" fill="#202020"/>
<path d="M93.1692 58.3006H93.9409V59.8439H93.1692V58.3006Z" fill="#E4B452"/>
<path d="M96.2559 58.3006H97.0275V59.8439H96.2559V58.3006Z" fill="#E4B452"/>
<path d="M90.0825 58.3006H90.8541V59.8439H90.0825V58.3006Z" fill="#E4B452"/>
<path d="M86.9957 58.3006H87.7674V59.8439H86.9957V58.3006Z" fill="#E4B452"/>
<path d="M93.1692 72.1907H93.9409V73.7341H93.1692V72.1907Z" fill="#E4B452"/>
<path d="M96.2559 72.1907H97.0275V73.7341H96.2559V72.1907Z" fill="#E4B452"/>
<path d="M90.0825 72.1907H90.8541V73.7341H90.0825V72.1907Z" fill="#E4B452"/>
<path d="M86.9957 72.1908H87.7674V73.7341H86.9957V72.1908Z" fill="#E4B452"/>
<path d="M92.0115 18.1734L91.2399 15.0867L92.7832 12L92.0115 14.0324V18.1734L92.7832 24.5836V26.127L92.0115 27.6703L91.2399 26.127L92.0115 18.1734Z" fill="#202020"/>
<path d="M67.3179 66.0173L76.578 66.0174V72.1907H77.7355L77.1567 76.8208L76.578 78.3641L77.7355 99.9711H66.1603L67.3179 78.3641L66.7391 76.8208L66.1603 72.1907H67.3179V66.0173Z" fill="#202020"/>
<path d="M66.3919 64.6189L65.7745 63.8364V62.9886H66.3919V56.7935L71.9479 49.0404L77.504 56.7935V62.9886H78.1214V63.8364L77.504 64.6189L76.8867 65.6623H71.9479H67.0092L66.3919 64.6189Z" fill="#202020"/>
<path d="M71.5621 73.7341H72.3337V75.2774H71.5621V73.7341Z" fill="#E4B452"/>
<path d="M74.6488 73.7341H75.4205V75.2774H74.6488V73.7341Z" fill="#E4B452"/>
<path d="M68.4755 73.7341H69.2471V75.2774H68.4755V73.7341Z" fill="#E4B452"/>
<path d="M71.9479 45.2991L71.1763 44.0831L72.7196 42.867L71.9479 43.6677V45.2991L72.7196 47.8244V48.4324L71.9479 49.0404L71.1763 48.4324L71.9479 45.2991Z" fill="#202020"/>
<path d="M107.445 66.0173L116.705 66.0174V72.1907H117.863L117.284 76.8208L116.705 78.3641L117.863 99.9711H106.288L107.445 78.3641L106.866 76.8208L106.288 72.1907H107.445V66.0173Z" fill="#202020"/>
<path d="M106.519 64.6189L105.902 63.8364V62.9886H106.519V56.7935L112.075 49.0404L117.631 56.7935V62.9886H118.249V63.8364L117.631 64.6189L117.014 65.6623H112.075H107.136L106.519 64.6189Z" fill="#202020"/>
<path d="M111.689 73.7341H112.461V75.2774H111.689V73.7341Z" fill="#E4B452"/>
<path d="M114.776 73.7341H115.548V75.2774H114.776V73.7341Z" fill="#E4B452"/>
<path d="M108.603 73.7341H109.374V75.2774H108.603V73.7341Z" fill="#E4B452"/>
<path d="M112.075 45.2991L111.303 44.0831L112.847 42.867L112.075 43.6677V45.2991L112.847 47.8244V48.4324L112.075 49.0404L111.303 48.4324L112.075 45.2991Z" fill="#202020"/>
<path d="M90.4682 103.058L92.0116 101.514L93.5549 103.058V107.688H90.4682V103.058Z" fill="#E4B452"/>
<path d="M108.988 103.058L110.532 101.514L112.075 103.058V107.688H108.988V103.058Z" fill="#E4B452"/>
<path d="M71.948 103.058L73.4914 101.514L75.0347 103.058V107.688H71.948V103.058Z" fill="#E4B452"/>
<path d="M68.8613 86.8526L69.6329 86.0809L70.4046 86.8526V89.1676H68.8613V86.8526Z" fill="#E4B452"/>
<path d="M58.0578 106.916L58.8295 106.145L59.6012 106.916V109.231H58.0578V106.916Z" fill="#E4B452"/>
<path d="M42.6243 106.916L43.3959 106.145L44.1676 106.916V109.231H42.6243V106.916Z" fill="#E4B452"/>
<path d="M124.422 106.916L125.194 106.145L125.965 106.916V109.231H124.422V106.916Z" fill="#E4B452"/>
<path d="M139.855 106.916L140.627 106.145L141.399 106.916V109.231H139.855V106.916Z" fill="#E4B452"/>
<path d="M75.0347 86.8526L75.8063 86.0809L76.578 86.8526V89.1676H75.0347V86.8526Z" fill="#E4B452"/>
<path d="M81.2081 86.8526L81.9797 86.0809L82.7514 86.8526V89.1676H81.2081V86.8526Z" fill="#E4B452"/>
<path d="M87.3815 86.8526L88.1532 86.0809L88.9249 86.8526V89.1676H87.3815V86.8526Z" fill="#E4B452"/>
<path d="M113.618 86.8526L114.39 86.0809L115.162 86.8526V89.1676H113.618V86.8526Z" fill="#E4B452"/>
<path d="M107.445 86.8526L108.217 86.0809L108.988 86.8526V89.1676H107.445V86.8526Z" fill="#E4B452"/>
<path d="M101.272 86.8526L102.043 86.0809L102.815 86.8526V89.1676H101.272V86.8526Z" fill="#E4B452"/>
<path d="M95.0983 86.8526L95.8699 86.0809L96.6416 86.8526V89.1676H95.0983V86.8526Z" fill="#E4B452"/>
<path d="M88 114.767L89.3333 112.803L92 112.017L94.6667 112.803L96 114.767V123.017H88V114.767Z" fill="#E4B452"/>
<path d="M29.5883 124.5L11 136.695L21.0883 152L32.0883 162.5L43.0883 171.5L60.0883 180L78.5883 185L101.588 185.5L118.588 182.5L135.51 175.565L152.01 165.065L166.588 150L139.588 144V146L138.088 145.5V143.5L118.588 139V140.5L117.108 140V138.211L108.588 133.5V135.5L107.588 135V133L99.5883 128V130L98.5883 129.5V127.5L87.6766 120.775V123.05L48.1766 120.017L37.3335 122.292L29.5883 124.5Z" fill="#202020"/>
</svg>
